<?xml version="1.0" encoding="iso-8859-1"?>
<!-- Generator: Adobe Illustrator 19.0.0, SVG Export Plug-In . SVG Version: 6.00 Build 0)  -->
<svg version="1.1" id="Layer_1" xmlns="http://www.w3.org/2000/svg" xmlns:xlink="http://www.w3.org/1999/xlink" x="0px" y="0px"
	 viewBox="0 0 512 512" style="enable-background:new 0 0 512 512;" xml:space="preserve">
<g>
	<path style="fill:#88C057;" d="M97.103,441.379c-19.5,0-35.31,15.81-35.31,35.31c0,19.5,15.81,35.31,35.31,35.31h353.103v-70.621
		H97.103z"/>
	<g>
		<path style="fill:#A2D672;" d="M61.793,35.31V476.69c0-19.5,15.81-35.31,35.31-35.31h353.103V0H97.103
			C77.603,0,61.793,15.81,61.793,35.31"/>
		<path style="fill:#A2D672;" d="M414.897,485.517H105.931c-4.873,0-8.828-3.955-8.828-8.828c0-4.873,3.955-8.828,8.828-8.828
			h308.966c4.873,0,8.828,3.955,8.828,8.828C423.724,481.563,419.769,485.517,414.897,485.517"/>
	</g>
	<g>
		<path style="fill:#ECBA16;" d="M273.655,344.276v-44.138h52.966v44.138c0,14.627-11.855,26.483-26.483,26.483l0,0
			C285.511,370.759,273.655,358.903,273.655,344.276"/>
		<path style="fill:#ECBA16;" d="M300.138,141.117c-32.256,0.538-60.593,30.27-61.749,62.508
			c-0.574,15.757,4.776,30.226,13.983,41.41c13.021,15.828,21.283,35.01,21.283,55.508v-0.406h52.966v0.353
			c0-19.915,7.168-39.168,20.233-54.21c9.393-10.814,15.078-24.92,15.078-40.377C361.931,171.422,334.742,140.543,300.138,141.117"
			/>
		<path style="fill:#ECBA16;" d="M300.138,114.759c-4.873,0-8.828-3.955-8.828-8.828V52.966c0-4.873,3.955-8.828,8.828-8.828
			c4.873,0,8.828,3.955,8.828,8.828v52.966C308.966,110.804,305.011,114.759,300.138,114.759"/>
		<path style="fill:#ECBA16;" d="M344.267,123.586c-1.836,0-3.699-0.574-5.288-1.766c-3.902-2.922-4.687-8.457-1.766-12.359
			l26.483-35.31c2.922-3.893,8.457-4.696,12.359-1.766c3.902,2.922,4.687,8.457,1.766,12.359l-26.483,35.31
			C349.599,122.368,346.951,123.586,344.267,123.586"/>
		<path style="fill:#ECBA16;" d="M256.009,123.586c-2.684,0-5.332-1.218-7.071-3.531l-26.483-35.31
			c-2.922-3.902-2.136-9.437,1.766-12.359c3.919-2.931,9.437-2.127,12.359,1.766l26.483,35.31c2.922,3.902,2.136,9.437-1.766,12.359
			C259.708,123.012,257.845,123.586,256.009,123.586"/>
	</g>
	<path style="fill:#ED8A19;" d="M273.655,335.448h52.966v-35.31h-52.966V335.448z"/>
	<path style="fill:#88C057;" d="M97.103,441.379h52.966V0H97.103c-19.5,0-35.31,15.81-35.31,35.31V476.69
		C61.793,457.19,77.603,441.379,97.103,441.379"/>
</g>
<g>
</g>
<g>
</g>
<g>
</g>
<g>
</g>
<g>
</g>
<g>
</g>
<g>
</g>
<g>
</g>
<g>
</g>
<g>
</g>
<g>
</g>
<g>
</g>
<g>
</g>
<g>
</g>
<g>
</g>
</svg>
